<svg width="660" height="125" viewBox="0 0 660 125" fill="none" xmlns="http://www.w3.org/2000/svg">
<path d="M40.576 79.616V75.52L1.95503e-05 60.16V40.832L13.952 26.88H49.92L63.872 40.832V49.792H40.832V44.544H24.576V48.64L65.152 64V83.328L51.2 97.28H13.952L1.95503e-05 83.328V74.368H23.04V79.616H40.576ZM104.047 124.16H79.215V26.88H100.975V35.584L109.679 26.88H132.847L146.799 40.832V83.328L132.847 97.28H104.047V124.16ZM121.967 49.92H106.991L104.047 52.48V75.008H121.967V49.92ZM173.497 26.88H213.177L227.129 40.832V83.328L213.177 97.28H173.497L159.545 83.328V40.832L173.497 26.88ZM202.297 75.008V49.152H184.377V75.008H202.297ZM265.392 19.2H240.56V2.28882e-05H265.392V19.2ZM265.392 97.28H240.56V26.88H265.392V97.28ZM304.267 97.28H279.435V1.28002H304.267V97.28ZM356.326 79.616V75.52L315.75 60.16V40.832L329.702 26.88H365.67L379.622 40.832V49.792H356.582V44.544H340.326V48.64L380.902 64V83.328L366.95 97.28H329.702L315.75 83.328V74.368H338.79V79.616H356.326ZM419.797 124.16H394.965V26.88H416.725V35.584L425.429 26.88H448.597L462.549 40.832V83.328L448.597 97.28H419.797V124.16ZM437.717 49.92H422.741L419.797 52.48V75.008H437.717V49.92ZM489.247 26.88H528.927L542.879 40.832V83.328L528.927 97.28H489.247L475.295 83.328V40.832L489.247 26.88ZM518.047 75.008V49.152H500.127V75.008H518.047ZM581.142 97.28H556.31V26.88H578.07V36.864L588.054 26.88H603.414V50.688H584.086L581.142 53.248V97.28ZM659.637 97.28H629.941L615.989 83.328V46.08H607.285V26.88H615.989V10.88H640.821V26.88H659.125V46.08H640.821V74.24H659.637V97.28Z" fill="currentColor"/>
</svg>
